# xmcd
#
# Track frame offsets:
#	150
#	20141
#	43910
#	66160
#	92633
#	116512
#	138698
#	166916
#	188127
#	208562
#	227967
#
# Disc length: 3312 seconds
#
# Revision: 0
# Processed by: cddbd v1.5.2PL0 Copyright (c) Steve Scherf et al.
# Submitted via: EasyCDDAExtractor 15.2.0.1
#
DISCID=9f0cee0b
DTITLE=Fred Sun Walk and The Dog Brothers - Everything Around
DYEAR=1900
DGENRE=
TTITLE0=She Doesn't Kown
TTITLE1=Better This Way
TTITLE2=All Love in my Heart
TTITLE3=Many Love Songs
TTITLE4=You Broke my Heart, my Love
TTITLE5=I Need to See That Woman
TTITLE6=Living Something New
TTITLE7=Everything Around
TTITLE8=It's All Right
TTITLE9=The Fighter
TTITLE10=What More Could I Have Done
EXTD=
EXTT0=
EXTT1=
EXTT2=
EXTT3=
EXTT4=
EXTT5=
EXTT6=
EXTT7=
EXTT8=
EXTT9=
EXTT10=
PLAYORDER=
